<svg width="16" height="17" viewBox="0 0 16 17" fill="none" xmlns="http://www.w3.org/2000/svg">
<path d="M7.63563 4.71602C5.46865 4.71602 3.72077 6.46488 3.72077 8.63306C3.72077 10.8012 5.46865 12.5501 7.63563 12.5501C9.8026 12.5501 11.5505 10.8012 11.5505 8.63306C11.5505 6.46488 9.8026 4.71602 7.63563 4.71602ZM7.63563 11.1797C6.23527 11.1797 5.09046 10.0376 5.09046 8.63306C5.09046 7.22852 6.23186 6.08647 7.63563 6.08647C9.03939 6.08647 10.1808 7.22852 10.1808 8.63306C10.1808 10.0376 9.03598 11.1797 7.63563 11.1797ZM12.6238 4.55579C12.6238 5.06374 12.2149 5.46943 11.7106 5.46943C11.203 5.46943 10.7975 5.06033 10.7975 4.55579C10.7975 4.05124 11.2064 3.64215 11.7106 3.64215C12.2149 3.64215 12.6238 4.05124 12.6238 4.55579ZM15.2166 5.48306C15.1587 4.2592 14.8793 3.17511 13.9832 2.28192C13.0905 1.38874 12.0071 1.1092 10.7839 1.04783C9.52321 0.976243 5.74464 0.976243 4.48398 1.04783C3.2642 1.10579 2.18072 1.38533 1.28462 2.27852C0.388534 3.1717 0.112551 4.25579 0.0512218 5.47965C-0.0203292 6.74102 -0.0203292 10.5217 0.0512218 11.7831C0.109144 13.0069 0.388534 14.091 1.28462 14.9842C2.18072 15.8774 3.26079 16.1569 4.48398 16.2183C5.74464 16.2899 9.52321 16.2899 10.7839 16.2183C12.0071 16.1603 13.0905 15.8808 13.9832 14.9842C14.8759 14.091 15.1553 13.0069 15.2166 11.7831C15.2882 10.5217 15.2882 6.74442 15.2166 5.48306ZM13.588 13.1365C13.3222 13.8047 12.8077 14.3194 12.1365 14.5887C11.1314 14.9876 8.74637 14.8956 7.63563 14.8956C6.52488 14.8956 4.13644 14.9842 3.13473 14.5887C2.46692 14.3228 1.95243 13.8081 1.68327 13.1365C1.28462 12.1308 1.37662 9.74442 1.37662 8.63306C1.37662 7.5217 1.28803 5.13192 1.68327 4.12965C1.94903 3.46147 2.46351 2.9467 3.13473 2.67738C4.13985 2.27852 6.52488 2.37056 7.63563 2.37056C8.74637 2.37056 11.1348 2.28192 12.1365 2.67738C12.8043 2.94329 13.3188 3.45806 13.588 4.12965C13.9866 5.13533 13.8946 7.5217 13.8946 8.63306C13.8946 9.74442 13.9866 12.1342 13.588 13.1365Z" fill="#054565"/>
</svg>
