<svg width="23" height="23" viewBox="0 0 23 23" fill="none" xmlns="http://www.w3.org/2000/svg">
<path d="M8.83209 2.6344L5.43393 6.80393H1.53581C1.02935 6.80393 0.619141 7.30737 0.619141 7.92893V14.6789C0.619141 15.3 1.02935 15.8039 1.53581 15.8039H5.43393L8.83209 19.9735C9.40615 20.678 10.3969 20.183 10.3969 19.178V3.42987C10.3969 2.42393 9.40539 1.9308 8.83209 2.6344ZM17.7436 0.240022C17.317 -0.103572 16.7437 0.041272 16.4637 0.565803C16.1834 1.0894 16.3025 1.79299 16.7292 2.13658C19.2603 4.17518 20.7709 7.60221 20.7709 11.3044C20.7709 15.0066 19.2603 18.4336 16.7292 20.4722C16.3025 20.8153 16.1834 21.5194 16.4637 22.0425C16.7326 22.5446 17.3013 22.725 17.7436 22.3683C20.7961 19.9092 22.6191 15.7725 22.6191 11.3039C22.6191 6.83533 20.7961 2.69908 17.7436 0.240022ZM18.9525 11.3039C18.9525 8.32596 17.728 5.58799 15.6765 3.98018C15.2491 3.64549 14.6823 3.80112 14.4115 4.32987C14.1407 4.85862 14.2672 5.55846 14.6946 5.89362C16.2128 7.08377 17.1191 9.10596 17.1191 11.3039C17.1191 13.5019 16.2128 15.5241 14.6946 16.7142C14.2672 17.0489 14.1407 17.7488 14.4115 18.278C14.6602 18.7636 15.2182 18.9877 15.6765 18.6277C17.728 17.0199 18.9525 14.2824 18.9525 11.3039ZM13.5376 7.70065C13.0954 7.40393 12.5373 7.5994 12.2921 8.14362C12.0481 8.68783 12.2096 9.37174 12.6531 9.67221C13.1462 10.0046 13.4525 10.6303 13.4525 11.3039C13.4525 11.978 13.1462 12.6033 12.6534 12.9356C12.21 13.2361 12.0484 13.92 12.2925 14.4642C12.5381 15.0108 13.0965 15.2049 13.538 14.9072C14.6163 14.1783 15.2862 12.7978 15.2862 11.3035C15.2862 9.80908 14.6163 8.42908 13.5376 7.70065Z" fill="white"/>
</svg>
