<svg width="16" height="15" viewBox="0 0 16 15" fill="none" xmlns="http://www.w3.org/2000/svg">
<path d="M14.3553 3.62673C14.3655 3.78177 14.3655 3.93685 14.3655 4.0919C14.3655 8.82099 11.066 14.27 5.03553 14.27C3.17766 14.27 1.45178 13.683 0 12.6641C0.263969 12.6973 0.51775 12.7084 0.791875 12.7084C2.32484 12.7084 3.73603 12.1436 4.86294 11.18C3.42131 11.1468 2.21319 10.1168 1.79694 8.69918C2 8.73239 2.20303 8.75454 2.41625 8.75454C2.71066 8.75454 3.00509 8.71023 3.27919 8.63274C1.77666 8.30045 0.649719 6.86069 0.649719 5.12189V5.0776C1.08625 5.34341 1.59391 5.50953 2.13194 5.53166C1.24869 4.88928 0.670031 3.79285 0.670031 2.55242C0.670031 1.88792 0.832438 1.27878 1.11672 0.74717C2.73094 2.91791 5.15734 4.33551 7.87813 4.49059C7.82738 4.22478 7.79691 3.94793 7.79691 3.67105C7.79691 1.69964 9.25884 0.09375 11.0761 0.09375C12.0203 0.09375 12.873 0.525682 13.472 1.22342C14.2131 1.06837 14.9238 0.76933 15.5533 0.359557C15.3096 1.19022 14.7918 1.88795 14.1116 2.33093C14.7715 2.25344 15.4111 2.05405 15.9999 1.77719C15.5533 2.48598 14.9949 3.11724 14.3553 3.62673Z" fill="#054565"/>
</svg>
