<?xml version="1.0" standalone="no"?>
<!DOCTYPE svg PUBLIC "-//W3C//DTD SVG 20010904//EN"
 "http://www.w3.org/TR/2001/REC-SVG-20010904/DTD/svg10.dtd">
<svg version="1.0" xmlns="http://www.w3.org/2000/svg"
 width="260.000000pt" height="260.000000pt" viewBox="0 0 260.000000 260.000000"
 preserveAspectRatio="xMidYMid meet">
<metadata>
Created by potrace 1.11, written by Peter Selinger 2001-2013
</metadata>
<g transform="translate(0.000000,260.000000) scale(0.100000,-0.100000)"
fill="#000000" stroke="none">
<path d="M485 1993 c4 -25 -5 -36 -18 -24 -9 7 -12 2 -14 -17 0 -15 -12 -36
-25 -47 -14 -12 -24 -31 -23 -44 1 -13 -6 -28 -16 -34 -9 -6 -15 -17 -12 -24
3 -8 0 -13 -7 -11 -7 2 -15 -3 -18 -11 -3 -9 0 -11 9 -7 8 4 5 0 -5 -8 -11 -9
-17 -16 -13 -16 4 0 2 -11 -3 -25 -5 -14 -6 -25 -1 -25 9 0 -1 -69 -15 -104
-6 -15 -4 -17 6 -11 10 6 12 4 7 -9 -4 -10 -2 -27 4 -39 19 -35 81 -97 98 -98
11 0 12 -2 3 -6 -8 -3 -3 -12 15 -26 15 -12 29 -21 30 -19 7 5 2 17 -6 17 -5
0 -12 3 -16 7 -4 3 1 5 12 3 10 -2 22 -4 27 -4 4 -1 6 -12 4 -25 -3 -14 -1
-31 4 -38 8 -10 9 -9 5 4 -3 9 -1 19 6 21 15 5 -33 76 -63 95 -11 7 -18 17
-15 22 3 5 -4 11 -15 15 -11 3 -20 11 -20 16 0 6 -4 7 -10 4 -5 -3 -10 -1 -10
5 0 6 8 13 18 17 9 3 29 20 44 36 16 17 31 27 35 23 4 -4 1 -11 -6 -15 -9 -6
-10 -11 -2 -15 6 -4 11 -1 11 6 0 9 3 9 10 -2 7 -11 8 -6 5 18 -2 18 0 30 5
27 5 -3 7 -12 3 -20 -3 -9 1 -15 11 -15 9 0 16 -6 16 -12 0 -10 2 -10 8 0 10
15 48 11 65 -8 10 -12 9 -12 -5 -1 -10 7 -18 9 -18 4 0 -5 11 -15 25 -21 20
-9 27 -8 42 6 15 15 16 15 11 0 -8 -20 28 -32 51 -17 14 9 14 10 -1 5 -12 -3
-15 -1 -11 9 3 8 10 12 16 8 5 -3 7 -1 4 5 -4 5 -17 8 -30 5 -19 -4 -20 -3 -4
7 9 6 17 16 17 23 0 7 -4 6 -10 -3 -8 -13 -10 -12 -10 3 0 10 -7 26 -16 34
-13 13 -13 17 -2 24 11 7 11 9 0 9 -7 0 -10 5 -6 12 4 7 3 8 -5 4 -6 -4 -8
-12 -5 -18 4 -7 2 -8 -4 -4 -9 5 -9 13 0 29 10 19 9 20 -4 10 -12 -10 -15 -10
-15 2 0 8 7 15 15 15 12 0 12 3 2 15 -8 10 -9 15 -2 15 6 0 9 7 6 15 -4 8 -10
15 -16 15 -5 0 -6 -6 -2 -12 4 -7 4 -10 -1 -6 -4 4 -15 2 -24 -4 -12 -10 -12
-8 2 8 19 23 22 44 7 44 -5 0 -10 6 -10 14 0 8 -4 18 -10 21 -6 4 -7 -1 -3
-11 5 -13 3 -15 -7 -9 -10 6 -12 4 -7 -7 4 -12 1 -14 -16 -10 -12 3 -16 7 -9
10 7 2 9 9 6 14 -5 7 -2 8 6 3 10 -6 12 -4 7 8 -3 9 -1 18 6 21 7 2 5 5 -5 5
-11 1 -15 7 -10 23 3 14 1 19 -6 14 -8 -5 -10 -2 -6 8 3 9 11 13 18 9 7 -4 7
-2 -1 8 -10 12 -10 18 0 29 10 12 9 12 -5 2 -12 -10 -18 -10 -24 -1 -5 8 -13
4 -26 -12 -11 -13 -17 -19 -14 -13 3 6 7 26 10 45 3 19 3 28 0 21 -5 -9 -9
-10 -19 -2 -10 9 -13 7 -10 -7z m65 -48 c11 -13 10 -14 -4 -9 -9 3 -16 10 -16
15 0 13 6 11 20 -6z m-137 -250 c-3 -9 -8 -14 -10 -11 -3 3 -2 9 2 15 9 16 15
13 8 -4z m24 -40 c8 -8 19 -12 25 -9 7 4 8 2 4 -4 -3 -6 -16 -9 -28 -7 -12 3
-25 0 -28 -5 -4 -6 -12 1 -18 15 -10 22 -9 25 9 25 11 0 27 -7 36 -15z m223
-15 c0 -14 -28 -1 -34 16 -4 12 -2 12 14 4 11 -6 20 -15 20 -20z"/>
<path d="M2458 1874 c-3 -3 -20 -6 -37 -6 -27 -1 -29 -3 -18 -16 9 -13 9 -14
0 -8 -11 6 -67 -17 -83 -34 -3 -3 -15 -5 -28 -4 -12 1 -27 -6 -32 -15 -5 -9
-10 -12 -10 -7 0 5 -6 4 -12 -2 -7 -5 -24 -12 -38 -14 -14 -1 -31 -12 -38 -23
-13 -19 -13 -19 -7 -1 6 19 5 19 -13 3 -11 -10 -26 -15 -36 -11 -9 3 -16 1
-16 -5 0 -6 -5 -11 -12 -11 -6 0 -20 -7 -30 -17 -10 -9 -18 -12 -18 -6 0 5 -7
10 -15 10 -8 0 -15 -6 -15 -14 0 -7 -5 -13 -11 -13 -5 0 -7 6 -3 13 4 6 -2 4
-13 -5 -11 -10 -32 -19 -47 -20 -16 -2 -31 -8 -33 -15 -3 -7 -9 -10 -14 -7 -5
3 -9 2 -9 -3 0 -4 -14 -9 -32 -10 -17 -1 -35 -8 -40 -15 -6 -10 -8 -10 -8 2
-1 8 -6 4 -11 -9 -8 -19 -12 -21 -24 -11 -9 8 -15 8 -15 2 0 -6 -8 -9 -17 -7
-10 1 -27 -2 -38 -8 -11 -6 -23 -10 -27 -9 -5 1 -8 -3 -8 -8 0 -6 -6 -10 -12
-9 -19 4 -78 -11 -78 -20 0 -4 -17 -8 -37 -9 -20 -2 -43 -8 -50 -14 -9 -7 -13
-7 -13 1 0 8 -6 7 -16 -3 -8 -9 -22 -16 -29 -16 -17 0 -85 -66 -77 -74 3 -3 1
-6 -5 -6 -6 0 -59 -47 -119 -105 -127 -122 -144 -137 -144 -128 0 4 -6 -2 -14
-12 -8 -11 -12 -24 -9 -29 4 -5 1 -6 -6 -2 -11 7 -52 -13 -79 -41 -8 -7 -17
-11 -22 -8 -4 3 -14 -3 -21 -12 -12 -14 -12 -16 0 -8 9 5 12 4 7 -3 -4 -8 -15
-8 -31 -2 -17 7 -25 5 -29 -6 -3 -8 -11 -14 -17 -14 -9 0 -9 4 0 14 9 11 9 16
0 22 -8 4 -9 3 -5 -4 4 -7 2 -12 -3 -12 -6 0 -11 5 -11 12 0 6 -3 9 -6 6 -3
-4 -1 -15 5 -26 8 -15 8 -22 -2 -25 -9 -4 -9 -6 1 -6 7 -1 11 -5 8 -10 -4 -5
5 -4 18 2 13 7 22 16 18 22 -3 5 1 4 10 -3 22 -17 70 -12 65 8 -3 11 3 15 22
14 36 -2 51 5 51 24 0 8 3 12 7 9 3 -4 15 1 26 10 15 13 19 14 13 3 -4 -8 0
-6 8 4 9 11 16 17 16 13 0 -7 18 7 79 60 20 18 40 33 44 33 5 0 5 5 2 10 -3 6
-1 10 4 10 6 0 23 13 37 30 15 16 31 27 37 23 6 -3 7 -1 3 5 -3 6 2 15 11 21
10 6 14 11 9 11 -6 0 -1 8 10 18 10 10 32 35 48 55 16 20 33 34 38 31 4 -3 8
0 8 6 0 6 5 8 10 5 11 -7 70 15 70 26 0 3 11 5 25 4 14 -2 27 1 31 6 3 5 10 7
15 4 5 -4 9 -1 9 5 0 6 5 8 10 5 5 -3 16 -3 23 2 14 9 19 10 51 12 14 0 31 8
40 16 8 8 29 17 45 19 17 2 38 10 48 17 15 12 16 12 8 -1 -8 -13 -7 -13 9 0
18 14 36 20 67 23 9 1 15 7 12 14 -3 7 2 13 12 13 10 0 13 -4 9 -12 -5 -9 -2
-9 9 1 9 7 17 10 17 5 0 -5 5 -2 11 6 8 12 9 10 4 -9 -5 -17 -4 -22 5 -16 9 5
11 4 6 -4 -4 -6 -11 -9 -16 -6 -4 3 -10 -2 -14 -10 -3 -8 0 -17 6 -21 7 -5 8
-2 3 6 -5 9 -4 11 4 6 9 -6 9 -11 0 -23 -11 -13 -14 -13 -26 3 -11 15 -12 13
-8 -15 2 -18 0 -29 -6 -25 -5 3 -6 11 -2 17 3 7 -3 4 -14 -6 -11 -9 -23 -14
-28 -10 -4 5 -2 -3 5 -16 6 -13 7 -21 2 -17 -6 3 -13 2 -17 -3 -8 -14 -36 -2
-29 13 3 6 -3 1 -14 -11 -21 -24 -38 -31 -26 -11 4 7 3 8 -5 4 -14 -9 -5 -26
15 -26 9 0 12 -5 8 -12 -5 -10 -4 -10 6 -1 10 9 16 9 26 -2 17 -17 18 -29 2
-19 -7 5 -8 3 -3 -6 6 -10 11 -9 22 5 13 18 13 18 14 -1 0 -18 1 -18 9 1 5 11
9 15 9 9 1 -7 7 -14 15 -17 10 -4 13 0 11 15 -4 17 0 19 19 16 19 -4 23 -1 18
11 -3 9 -2 13 3 9 4 -4 15 -2 23 5 13 10 14 9 7 -3 -7 -12 -6 -13 7 -3 8 7 18
10 21 6 4 -3 7 -1 7 6 0 7 5 9 10 6 6 -4 9 -1 8 7 -2 8 6 13 21 13 14 0 26 7
29 15 3 13 2 13 -8 0 -10 -13 -11 -13 -7 0 2 8 12 14 21 12 9 -2 24 4 33 13
13 13 18 14 24 3 7 -11 9 -11 9 0 0 7 5 10 10 7 6 -3 10 0 10 8 0 8 7 18 16
21 8 3 12 10 9 16 -3 6 1 7 9 4 9 -3 16 -1 16 5 0 6 9 11 20 11 11 0 20 5 20
11 0 6 7 8 17 5 10 -4 14 -4 11 0 -8 8 14 34 25 27 4 -2 7 3 7 12 0 9 -4 14
-8 11 -5 -3 -9 1 -9 9 0 12 4 12 20 -2 19 -17 19 -17 13 7 -3 14 -3 19 0 12 5
-10 9 -10 22 0 14 12 14 10 2 -12 -11 -20 -7 -18 21 10 19 19 31 37 27 40 -4
3 -3 12 2 20 9 13 10 13 10 0 1 -8 7 0 15 19 10 23 20 31 30 27 9 -3 15 0 15
10 0 11 6 14 16 10 8 -3 13 -2 9 3 -8 15 6 42 19 34 6 -3 7 -2 3 2 -13 14 -36
14 -31 0 7 -17 -12 -29 -22 -14 -5 8 -3 9 6 4 9 -5 11 -4 6 4 -6 9 -11 9 -21
1 -11 -9 -13 -6 -11 14 3 27 3 29 -6 20z m-48 -159 c0 -1 -6 -7 -13 -13 -10
-8 -13 -6 -13 7 0 11 6 17 13 14 7 -3 13 -6 13 -8z m-353 -91 c-3 -3 -12 -4
-19 -1 -8 3 -5 6 6 6 11 1 17 -2 13 -5z"/>
<path d="M380 1839 c0 -5 5 -7 10 -4 6 3 10 8 10 11 0 2 -4 4 -10 4 -5 0 -10
-5 -10 -11z"/>
<path d="M521 1564 c0 -11 3 -14 6 -6 3 7 2 16 -1 19 -3 4 -6 -2 -5 -13z"/>
<path d="M735 1482 c0 -11 6 -27 13 -35 7 -7 8 -18 4 -22 -4 -5 -1 -5 6 -1 6
4 12 2 12 -4 0 -6 4 -8 10 -5 6 3 7 -1 4 -9 -4 -10 -1 -16 9 -16 8 0 21 -8 28
-17 13 -17 12 -17 -6 -4 -18 13 -18 13 1 -8 18 -20 25 -21 43 -11 l22 11 -25
26 c-14 14 -26 30 -26 35 0 5 -4 6 -10 3 -5 -3 -10 -1 -10 5 0 7 -8 9 -19 5
-11 -3 -22 -1 -26 4 -4 7 1 8 11 4 12 -4 15 -2 12 8 -3 8 -10 14 -16 14 -6 0
-17 9 -25 19 -13 18 -14 18 -12 -2z"/>
<path d="M1843 1475 c0 -8 4 -12 9 -9 5 3 6 10 3 15 -9 13 -12 11 -12 -6z"/>
<path d="M1762 1424 c10 -10 20 -16 22 -13 3 3 -5 11 -17 18 -21 13 -21 12 -5
-5z"/>
<path d="M532 1346 c1 -14 6 -22 10 -20 4 3 8 -2 8 -10 0 -9 6 -16 13 -16 8 0
7 -4 -3 -10 -22 -14 1 -11 29 4 19 11 21 14 7 19 -10 4 -13 12 -9 23 5 14 2
16 -20 12 -22 -4 -25 -3 -16 8 9 11 8 14 -5 14 -11 0 -15 -8 -14 -24z"/>
<path d="M1804 1363 c6 -12 -5 -18 -26 -14 -7 1 -13 -32 -9 -52 1 -5 -3 -6 -9
-2 -6 3 -8 11 -5 16 12 18 -6 8 -29 -16 -13 -13 -26 -22 -30 -18 -4 4 -4 -1 0
-10 4 -12 2 -17 -7 -15 -7 2 -13 -4 -14 -12 0 -8 -10 -19 -22 -26 -34 -16 -63
-45 -63 -62 0 -9 -6 -12 -17 -8 -10 4 -14 4 -10 0 4 -4 0 -16 -9 -26 -14 -15
-20 -16 -32 -5 -13 9 -14 9 -8 0 6 -12 -4 -18 -26 -14 -4 0 -5 -6 -2 -14 4
-10 0 -15 -14 -15 -23 0 -46 -25 -37 -40 4 -6 3 -10 -2 -9 -28 5 -47 -19 -48
-61 0 -8 -6 -15 -14 -15 -8 0 -15 -8 -17 -18 -1 -9 2 -15 7 -11 5 3 9 0 9 -5
0 -6 -5 -11 -10 -11 -13 0 -5 -49 10 -64 8 -8 9 -6 5 5 -4 10 -2 20 3 23 6 3
8 16 4 28 -3 14 -1 19 6 14 7 -4 10 1 7 13 -2 11 3 25 11 32 12 10 13 9 8 -7
-5 -18 -5 -18 6 -1 14 22 5 38 -18 31 -15 -5 -15 -4 1 6 9 6 14 16 11 22 -4 6
-1 9 7 6 22 -8 51 11 45 29 -5 13 -4 13 7 4 11 -8 18 -6 33 10 10 12 26 18 37
15 16 -4 16 -2 5 12 -7 9 -9 14 -4 10 12 -11 46 10 46 28 0 8 5 12 10 9 6 -3
10 -1 10 5 0 6 4 8 10 5 5 -3 12 6 16 20 3 13 10 23 14 20 10 -6 42 30 33 39
-4 4 3 9 15 13 12 3 19 10 15 16 -4 6 0 8 10 4 12 -4 14 -2 10 11 -6 15 -5 16
12 2 17 -14 18 -14 5 10 -9 18 -9 22 0 14 12 -12 18 -8 63 43 17 19 17 21 0
34 -11 9 -14 10 -9 2z m16 -16 c0 -2 -9 -12 -20 -22 -24 -21 -27 -14 -4 9 15
15 24 20 24 13z m-145 -147 c-3 -5 -12 -10 -18 -10 -7 0 -6 4 3 10 19 12 23
12 15 0z m-98 -83 c0 -8 -6 -14 -14 -14 -9 0 -10 4 -2 14 6 7 12 13 14 13 1 0
2 -6 2 -13z m-47 -30 c0 -2 -10 -12 -21 -23 -22 -19 -22 -19 -8 4 12 19 29 30
29 19z m-145 -165 c-3 -3 -11 0 -18 7 -9 10 -8 11 6 5 10 -3 15 -9 12 -12z
m-10 -41 c3 -5 2 -12 -3 -15 -5 -3 -9 1 -9 9 0 17 3 19 12 6z"/>
<path d="M858 1333 c-9 -11 -7 -15 11 -20 17 -4 19 -8 9 -14 -11 -7 -10 -11 2
-18 18 -12 33 -3 26 15 -8 22 2 17 15 -7 8 -15 8 -19 0 -15 -6 4 -11 0 -11 -9
0 -12 6 -15 19 -10 11 3 22 1 26 -4 3 -7 0 -8 -9 -5 -9 3 -16 2 -16 -4 0 -15
32 -24 40 -11 4 6 -4 22 -17 35 -13 13 -21 29 -18 34 4 6 3 10 -2 9 -17 -4
-42 13 -37 25 7 17 -23 16 -38 -1z"/>
<path d="M583 1277 c-3 -6 1 -15 10 -22 22 -16 22 -26 1 -18 -9 3 -4 -6 11
-21 15 -15 24 -33 22 -40 -7 -18 22 -14 34 5 12 20 11 37 -2 19 -9 -12 -10
-11 -6 7 3 13 0 21 -6 20 -6 -1 -13 8 -15 21 -3 18 -8 22 -25 16 -21 -6 -21
-5 -3 8 16 13 17 15 2 15 -9 0 -20 -5 -23 -10z m52 -57 c3 -5 2 -10 -4 -10 -5
0 -13 5 -16 10 -3 6 -2 10 4 10 5 0 13 -4 16 -10z"/>
<path d="M1650 1229 c0 -5 5 -7 10 -4 6 3 10 8 10 11 0 2 -4 4 -10 4 -5 0 -10
-5 -10 -11z"/>
<path d="M965 1214 c-12 -10 -14 -14 -5 -11 8 2 24 -3 35 -12 20 -16 20 -16 2
5 -9 11 -14 24 -10 27 12 13 -2 6 -22 -9z"/>
<path d="M970 1180 c0 -5 5 -10 11 -10 5 0 7 5 4 10 -3 6 -8 10 -11 10 -2 0
-4 -4 -4 -10z"/>
<path d="M403 1133 c4 -3 5 -9 2 -14 -4 -5 2 -6 12 -2 16 6 16 5 4 -10 -7 -9
-9 -17 -3 -17 5 0 12 7 16 15 3 8 10 15 15 15 6 0 7 -8 4 -17 -5 -13 -2 -15
11 -10 9 4 15 3 11 -2 -3 -5 0 -13 6 -17 8 -4 9 -3 5 4 -4 7 -3 12 2 12 6 0
12 -6 15 -14 4 -9 18 -12 44 -10 21 1 50 -3 66 -11 15 -7 25 -10 22 -5 -3 4 2
10 10 14 8 3 17 1 20 -4 4 -6 1 -10 -5 -10 -6 0 -8 -5 -5 -11 5 -6 13 -3 22
10 8 12 19 18 25 15 7 -4 6 -9 -2 -14 -9 -5 -9 -9 -1 -14 6 -4 11 -2 11 4 0 6
5 8 12 4 6 -4 8 -3 4 4 -3 6 -2 13 4 17 5 3 10 1 10 -4 0 -6 11 -10 24 -9 14
1 24 5 24 8 -2 18 3 30 10 26 5 -3 9 1 9 9 0 23 -13 18 -25 -10 -12 -27 -27
-32 -38 -13 -4 6 -3 8 4 4 6 -3 14 -1 18 6 4 7 4 10 0 6 -4 -3 -22 0 -41 7
-18 8 -36 11 -40 7 -5 -4 -5 1 -2 11 4 9 3 17 -2 17 -5 0 -11 -9 -14 -20 -3
-13 -11 -18 -26 -15 -12 2 -19 0 -16 -4 3 -5 -2 -11 -10 -15 -8 -3 -17 0 -21
6 -4 7 -3 8 4 4 7 -4 12 -1 12 7 0 11 -16 14 -74 13 -52 -1 -72 2 -65 10 5 7
-1 11 -19 11 -15 0 -34 3 -42 5 -8 3 -12 3 -7 1z m325 -48 c2 -2 1 -9 -4 -16
-5 -9 -10 -8 -19 5 -12 16 -13 15 -19 0 -5 -13 -10 -14 -17 -7 -17 17 -1 32
28 27 15 -3 29 -7 31 -9z m-78 -4 c0 -5 -7 -12 -16 -15 -14 -5 -15 -4 -4 9 14
17 20 19 20 6z"/>
<path d="M357 1110 c-3 -11 -10 -20 -17 -20 -6 0 -8 6 -4 13 6 10 4 10 -7 0
-16 -15 -33 -17 -24 -3 4 6 -1 7 -11 3 -11 -4 -13 -8 -6 -11 7 -2 10 -7 8 -11
-3 -4 1 -8 9 -8 8 0 15 5 15 11 0 6 5 4 10 -4 9 -13 12 -13 21 3 6 9 14 15 19
12 4 -3 6 4 3 15 -7 25 -9 25 -16 0z"/>
<path d="M234 1048 c-5 -7 -2 -8 6 -3 9 5 11 4 6 -3 -4 -7 -18 -12 -32 -12
l-24 0 20 -20 c11 -11 20 -25 20 -31 0 -8 5 -7 15 1 9 7 18 10 22 6 3 -3 0 -6
-8 -6 -12 0 -11 -2 1 -11 11 -8 12 -12 2 -16 -6 -2 -10 -9 -6 -14 3 -5 -6 -4
-20 3 -14 6 -26 17 -26 25 0 7 -6 13 -12 13 -9 0 -8 3 2 10 8 5 12 11 10 14
-10 9 -70 14 -70 5 0 -6 -4 -7 -10 -4 -5 3 -10 0 -10 -7 0 -8 -3 -9 -8 -3 -14
21 -37 10 -37 -17 1 -26 0 -27 -19 -10 -11 9 -16 12 -13 5 4 -6 0 -16 -8 -21
-15 -8 -15 -10 1 -23 14 -11 18 -11 22 -1 3 10 7 10 19 1 8 -7 13 -8 12 -3 -8
46 33 56 52 13 8 -22 17 -27 40 -25 15 1 31 5 35 9 11 10 45 -13 38 -25 -4 -6
4 -3 18 8 14 10 23 25 21 32 -4 8 0 10 11 6 9 -3 14 -9 11 -13 -2 -4 2 -8 10
-8 8 0 12 3 10 7 -2 3 5 12 17 19 11 7 17 8 14 3 -10 -16 22 -22 38 -7 7 8 17
11 21 7 5 -4 5 -1 1 6 -7 11 -11 10 -25 -2 -16 -14 -17 -14 -18 7 -1 48 -3 58
-13 52 -5 -3 -10 -1 -10 6 0 8 -5 7 -17 -2 -15 -12 -16 -12 -11 2 5 13 0 18
-20 22 -15 3 -30 0 -34 -6 -6 -9 -8 -9 -8 -1 0 17 -28 25 -36 12z m-58 -50 c4
-7 3 -8 -4 -4 -7 4 -12 2 -12 -5 0 -7 -3 -10 -6 -6 -6 5 3 27 11 27 2 0 7 -5
11 -12z m27 -60 c12 3 18 1 14 -4 -4 -4 -19 -9 -32 -10 -17 0 -22 3 -17 15 3
8 7 10 9 4 2 -6 14 -8 26 -5z m68 -21 c-10 -9 -11 -8 -5 6 3 10 9 15 12 12 3
-3 0 -11 -7 -18z"/>
<path d="M226 958 c3 -4 9 -8 15 -8 5 0 9 4 9 8 0 5 -7 9 -15 9 -8 0 -12 -4
-9 -9z"/>
<path d="M110 939 c0 -5 5 -7 10 -4 6 3 10 8 10 11 0 2 -4 4 -10 4 -5 0 -10
-5 -10 -11z"/>
<path d="M131 914 c0 -11 3 -14 6 -6 3 7 2 16 -1 19 -3 4 -6 -2 -5 -13z"/>
<path d="M410 901 c0 -7 -4 -10 -9 -6 -5 3 -12 1 -16 -5 -4 -6 -12 -7 -18 -4
-7 4 -8 3 -4 -2 5 -5 14 -9 20 -9 7 -1 11 -7 9 -15 -2 -8 0 -11 5 -7 4 5 8 12
8 15 0 4 4 13 9 20 4 7 5 16 2 19 -3 4 -6 1 -6 -6z"/>
<path d="M425 879 c-4 -6 -5 -12 -2 -15 2 -3 7 2 10 11 7 17 1 20 -8 4z"/>
<path d="M444 858 c-5 -7 -3 -8 6 -3 9 6 10 2 5 -15 -6 -19 -4 -22 10 -17 9 4
27 7 40 7 17 0 23 5 22 18 -1 19 -22 22 -45 8 -6 -4 -12 -2 -12 3 0 15 -17 14
-26 -1z"/>
<path d="M1391 844 c0 -11 3 -14 6 -6 3 7 2 16 -1 19 -3 4 -6 -2 -5 -13z"/>
<path d="M523 824 c-10 -4 -10 -8 0 -18 14 -15 40 -9 30 7 -3 6 -1 7 6 3 8 -5
9 -12 2 -20 -7 -8 -4 -12 10 -12 10 0 19 4 19 8 0 4 5 8 11 8 5 0 7 -5 3 -12
-4 -7 -3 -8 5 -4 6 4 8 12 5 18 -4 6 -1 8 7 6 8 -3 13 -11 11 -18 -2 -10 0
-11 10 -3 9 8 18 8 31 -1 19 -15 24 -31 5 -20 -6 4 -8 3 -5 -4 7 -11 32 -11
43 1 11 10 26 8 19 -2 -3 -6 3 -8 15 -6 11 2 22 0 25 -5 3 -4 16 -7 30 -6 13
2 26 -3 29 -10 3 -9 -1 -11 -12 -7 -9 3 -14 3 -11 -1 4 -4 16 -9 28 -11 15 -3
19 0 14 8 -5 8 -2 8 9 -1 13 -10 17 -10 21 0 4 11 6 10 6 0 1 -8 6 -10 14 -6
7 5 6 0 -3 -11 -9 -11 -10 -16 -2 -11 7 4 12 2 13 -6 0 -7 4 -4 9 7 8 19 9 19
9 1 1 -16 3 -17 18 -5 10 8 14 9 10 2 -4 -6 -3 -14 3 -18 5 -3 10 -1 10 4 0 6
9 3 19 -6 11 -9 18 -19 16 -23 -2 -3 12 -4 31 -2 21 3 34 0 34 -7 0 -6 14 -11
30 -11 17 0 30 -4 30 -9 0 -4 38 -8 84 -7 79 1 85 3 89 23 4 24 -18 40 -29 21
-4 -6 -3 -8 3 -5 5 3 10 0 10 -7 0 -11 -4 -12 -19 -3 -10 7 -18 15 -18 19 0 5
-5 8 -11 8 -5 0 -8 -4 -5 -8 7 -12 -38 -9 -46 3 -5 6 -8 4 -8 -5 0 -13 -1 -13
-10 0 -9 13 -10 13 -10 0 0 -13 -1 -13 -10 0 -8 12 -10 12 -10 1 0 -8 -8 -4
-20 10 -10 13 -19 20 -20 16 0 -4 -10 -3 -21 4 -17 9 -20 8 -13 -3 6 -11 5
-11 -8 0 -8 7 -23 10 -32 6 -10 -4 -16 -1 -16 7 0 11 -3 11 -10 -1 -8 -12 -10
-10 -11 10 0 23 -1 23 -9 5 -8 -19 -9 -19 -9 -1 -1 13 -6 17 -21 13 -11 -3
-20 -1 -20 4 0 4 -8 6 -17 2 -10 -3 -15 -3 -11 2 9 10 -10 35 -26 35 -6 0 -4
-5 4 -10 9 -6 10 -10 3 -10 -6 0 -15 5 -18 10 -4 6 -10 8 -15 5 -4 -3 -16 -2
-25 1 -13 6 -14 9 -3 16 9 6 6 7 -9 3 -18 -5 -23 -2 -23 12 0 12 -3 14 -8 6
-5 -7 -23 -11 -45 -9 -24 3 -35 0 -30 -7 4 -7 0 -8 -11 -4 -10 4 -20 7 -22 7
-3 0 -2 5 2 12 4 6 3 8 -3 5 -6 -4 -16 -1 -22 7 -11 13 -103 20 -128 10z m207
-38 c0 -2 -8 -10 -17 -17 -16 -13 -17 -12 -4 4 13 16 21 21 21 13z m386 -125
c2 -7 0 -7 -3 -1 -3 7 -9 5 -17 -5 -10 -15 -12 -14 -12 3 0 21 28 24 32 3z"/>
<path d="M1415 800 c3 -5 8 -10 11 -10 2 0 4 5 4 10 0 6 -5 10 -11 10 -5 0 -7
-4 -4 -10z"/>
<path d="M1456 801 c-3 -5 2 -19 12 -31 18 -22 18 -22 19 -1 1 13 -4 21 -13
21 -8 0 -12 5 -9 10 3 6 4 10 1 10 -3 0 -7 -4 -10 -9z"/>
<path d="M1501 770 c-1 -22 11 -37 34 -41 11 -3 20 -11 20 -19 0 -10 10 -15
27 -15 15 1 24 -4 21 -9 -3 -5 -2 -6 4 -3 5 3 10 0 10 -8 0 -11 -4 -12 -13 -4
-8 7 -14 6 -20 -2 -5 -9 -10 -8 -18 3 -16 21 -38 27 -60 16 -14 -8 -16 -7 -11
2 5 8 3 11 -6 8 -8 -3 -13 -11 -11 -18 2 -9 -6 -7 -25 5 l-28 17 25 -25 c14
-13 28 -23 32 -21 4 3 9 0 13 -6 4 -6 11 -8 16 -5 5 3 6 -1 3 -10 -5 -11 0
-18 15 -22 11 -3 21 -10 21 -15 0 -5 5 -6 10 -3 6 3 16 3 23 -2 6 -4 29 -8 49
-8 32 -1 35 2 27 17 -5 10 -12 18 -15 18 -3 0 -3 -4 1 -9 3 -5 1 -12 -4 -16
-6 -3 -8 3 -6 15 2 11 0 20 -6 20 -5 0 -9 5 -9 11 0 5 5 7 12 3 8 -5 9 -1 4
12 -6 15 -5 17 5 7 7 -7 22 -13 34 -13 15 0 17 -2 6 -9 -9 -6 -11 -15 -6 -27
5 -11 8 -22 7 -26 -1 -4 4 -5 12 -2 8 3 21 -4 29 -16 11 -15 16 -18 20 -8 4
10 6 10 6 1 1 -9 23 -13 76 -13 65 0 74 2 68 17 -4 11 -3 14 5 9 7 -4 12 -2
12 3 0 14 -17 14 -26 0 -5 -8 -10 -6 -16 5 -5 9 -13 14 -19 11 -5 -4 -9 -1 -9
5 0 7 -6 10 -12 8 -13 -5 -22 1 -59 35 -10 9 -19 12 -19 6 0 -8 -4 -8 -12 -1
-7 6 -16 11 -20 11 -5 1 -11 2 -15 2 -5 1 -16 0 -26 0 -10 -2 -21 8 -26 21 -6
13 -10 17 -10 9 -1 -11 -5 -11 -19 2 -10 10 -22 14 -25 10 -4 -3 -7 1 -7 10 0
10 -3 16 -7 16 -20 -3 -34 2 -28 11 3 5 0 7 -8 4 -8 -3 -18 0 -23 7 -5 8 -3
10 6 4 9 -5 11 -4 6 4 -4 6 -11 9 -16 6 -4 -3 -11 1 -13 7 -4 9 -6 8 -6 -2z"/>
<path d="M1455 700 c3 -5 8 -10 11 -10 2 0 4 5 4 10 0 6 -5 10 -11 10 -5 0 -7
-4 -4 -10z"/>
<path d="M1316 652 c-3 -3 -6 -14 -6 -25 0 -13 5 -17 16 -13 8 3 24 1 34 -4
16 -8 18 -7 14 4 -3 9 -11 14 -16 13 -6 -1 -13 5 -15 13 -3 9 -1 11 4 5 11
-14 33 -17 33 -5 0 6 -6 10 -12 11 -7 0 -21 2 -30 4 -9 2 -19 0 -22 -3z"/>
<path d="M1387 637 c-9 -23 46 -66 59 -46 4 7 3 9 -3 6 -6 -4 -13 0 -16 8 -4
9 -1 12 9 8 7 -3 14 0 14 5 0 6 -9 9 -20 7 -11 -2 -24 3 -28 12 -8 13 -10 13
-15 0z m24 -24 c13 -16 12 -17 -3 -4 -17 13 -22 21 -14 21 2 0 10 -8 17 -17z"/>
<path d="M1461 604 c0 -11 3 -14 6 -6 3 7 2 16 -1 19 -3 4 -6 -2 -5 -13z"/>
<path d="M1490 616 c0 -2 8 -10 18 -17 15 -13 16 -12 3 4 -13 16 -21 21 -21
13z"/>
</g>
</svg>
